<svg xmlns="http://www.w3.org/2000/svg" width="2781" height="2809" viewBox="0 0 2781 2809" version="1.1"><path d="M 1354 116.085 C 1342.823 117.181, 1329.684 121.037, 1318.208 126.589 L 1308.917 131.085 1298.708 128.557 C 1279.804 123.876, 1269.690 122.646, 1249.500 122.571 C 1221.119 122.465, 1203.937 126.278, 1181.500 137.658 C 1160.358 148.382, 1153.109 149.358, 1136.262 143.750 C 1127.079 140.693, 1125.699 140.506, 1113 140.600 C 1101.439 140.686, 1098.236 141.082, 1090.703 143.359 C 1079.888 146.628, 1071.836 150.610, 1061.835 157.634 C 1057.620 160.595, 1050.672 164.679, 1046.396 166.710 L 1038.622 170.402 1019.561 171.154 C 990.734 172.292, 973.905 176.190, 941.500 189.235 C 878.695 214.518, 848.037 242.051, 824.120 294.652 C 808.512 328.979, 804.865 334.015, 784 350.038 C 762.515 366.539, 749.627 379.232, 740.120 393.256 C 734.061 402.193, 730.019 412.390, 725.931 429.050 C 723.264 439.920, 720.798 447.502, 718.662 451.401 C 715.701 456.805, 714.745 457.657, 707.330 461.504 C 688.425 471.311, 676.660 484.431, 672.361 500.500 C 670.354 508.002, 670.679 520.093, 673.158 530.203 C 676.191 542.569, 675.310 545.261, 665.208 554.500 C 643.904 573.984, 638.444 581.177, 634.207 595.338 C 632.268 601.818, 631.748 605.870, 631.683 615 C 631.597 627.160, 631.864 628.291, 638.496 643.926 C 641.754 651.608, 642.712 660.117, 641.056 666.690 C 640.391 669.335, 637.216 677.124, 634.001 683.999 C 614.406 725.913, 612.151 769.425, 627.221 814.888 C 637.926 847.185, 659.079 879.633, 686.485 905.800 C 702.337 920.934, 700.300 920.136, 770.428 938.696 L 792.355 944.500 797.978 963.500 C 811.952 1010.720, 823.384 1029.178, 855.718 1056.734 C 883.605 1080.500, 907.749 1091.062, 956.787 1100.950 C 990.033 1107.653, 1010.489 1108.397, 1037.810 1103.897 C 1068.944 1098.768, 1096.195 1087.702, 1125 1068.489 C 1140.068 1058.440, 1148.240 1051.975, 1161.628 1039.515 C 1167.198 1034.330, 1172.035 1030.369, 1172.378 1030.711 C 1172.720 1031.053, 1172.998 1034.971, 1172.996 1039.417 C 1172.976 1078.683, 1132.515 1201.291, 1103.996 1248.507 C 1095.979 1261.779, 1085.589 1272, 1080.114 1272 C 1079.591 1272, 1076.776 1269.962, 1073.857 1267.471 C 1068.704 1263.072, 1058.961 1258.992, 1053.645 1259.006 C 1044.931 1259.028, 1038.764 1263.788, 1036.046 1272.586 C 1032.789 1283.132, 1032.929 1283, 1025.002 1283 C 1011.827 1283, 1000.650 1290.014, 998.069 1299.902 C 997.481 1302.156, 996.540 1305.772, 995.979 1307.937 C 994.936 1311.956, 990.872 1316.116, 981 1323.268 C 971.899 1329.862, 970.036 1339.237, 974 1358.500 C 976.702 1371.631, 976.530 1376.819, 972.936 1390.682 C 968.965 1406.001, 968.187 1414.527, 970.373 1418.754 C 971.269 1420.488, 974.140 1423.342, 976.751 1425.098 C 988.128 1432.745, 990.030 1436.366, 988.182 1446.857 C 986.675 1455.412, 988.121 1459.937, 994.597 1466.931 C 997.513 1470.081, 1001.655 1473.875, 1003.801 1475.362 C 1006.594 1477.298, 1008.062 1479.265, 1008.964 1482.283 C 1012.207 1493.128, 1018.367 1501.547, 1025.630 1505.063 C 1032.418 1508.349, 1038.294 1507.404, 1050.325 1501.092 C 1055.723 1498.260, 1061.360 1496, 1063.027 1496 C 1065.713 1496, 1066.292 1496.598, 1068.587 1501.750 C 1076.479 1519.467, 1078.208 1529.949, 1076.709 1550.983 C 1075.531 1567.509, 1076.463 1584.828, 1080.477 1621 C 1081.850 1633.375, 1083.450 1652.725, 1084.033 1664 C 1085.271 1687.934, 1087.286 1705.367, 1090.078 1716.306 L 1092.071 1724.112 1086.714 1730.306 C 1046.918 1776.317, 1023.149 1838.685, 1014.799 1919 C 1013.042 1935.910, 1013.054 2008.480, 1014.818 2028 C 1019.482 2079.603, 1033.820 2153.572, 1047.563 2196.932 C 1055.328 2221.431, 1086.864 2301.133, 1096.455 2320.500 C 1128.361 2384.923, 1198.871 2489.531, 1249.464 2547.500 C 1254.264 2553, 1274.435 2573.825, 1294.289 2593.778 L 1330.387 2630.056 1334.897 2628.520 C 1337.377 2627.675, 1346.177 2626.093, 1354.453 2625.006 C 1366.476 2623.425, 1372.100 2622.111, 1382.436 2618.465 C 1389.551 2615.956, 1405.827 2610.782, 1418.606 2606.968 C 1439.526 2600.725, 1510.212 2576.145, 1537 2565.798 C 1548.496 2561.358, 1638.912 2518.320, 1661.799 2506.394 C 1723.941 2474.013, 1800.612 2418.494, 1862.241 2361.253 C 1928.564 2299.651, 1983.607 2221.053, 2017.536 2139.500 C 2026.685 2117.510, 2037.884 2083.438, 2043.831 2059.500 C 2052.223 2025.725, 2052.266 2025.350, 2052.750 1981.622 C 2053.314 1930.786, 2051.795 1917.290, 2042.279 1888.595 C 2025.908 1839.225, 1990.709 1795.794, 1942.500 1765.478 C 1930.521 1757.945, 1904.144 1745.080, 1890.500 1740.115 C 1865.583 1731.049, 1850.284 1727.490, 1814 1722.320 C 1778.754 1717.298, 1763.232 1717.214, 1732.500 1721.881 C 1671.273 1731.179, 1642.271 1740.924, 1599 1766.740 C 1568.292 1785.061, 1542.504 1808.555, 1527.632 1831.760 C 1525.401 1835.242, 1523.239 1837.639, 1522.762 1837.162 C 1520.872 1835.272, 1516.909 1821.165, 1513.981 1805.902 C 1510.504 1787.776, 1509.133 1783.607, 1500.973 1766.337 C 1487.860 1738.586, 1477.456 1722.667, 1463.699 1709.303 C 1423.543 1670.295, 1374.022 1646.955, 1316.500 1639.926 C 1302.163 1638.174, 1270.159 1638.427, 1254.500 1640.417 C 1226.298 1644.001, 1199.281 1651.992, 1173.211 1664.461 C 1164.542 1668.607, 1156.425 1672, 1155.174 1672 C 1150.593 1672, 1146.913 1669.048, 1144.178 1663.179 C 1141.714 1657.891, 1141.508 1656.365, 1141.191 1641 C 1140.858 1624.925, 1141.385 1618.334, 1145.427 1588 C 1146.269 1581.675, 1148.112 1563.225, 1149.521 1547 C 1152.588 1511.687, 1154.063 1500.586, 1158.491 1479.500 C 1163.887 1453.801, 1164.972 1444.386, 1164.889 1423.993 C 1164.809 1404.351, 1165.323 1399.803, 1167.524 1400.648 C 1169.260 1401.314, 1173.369 1395.098, 1176.261 1387.434 C 1178.420 1381.712, 1178.502 1380.248, 1178.551 1346.500 C 1178.603 1309.911, 1178.886 1305.994, 1184.063 1270 C 1195.282 1192.007, 1211.601 1128.389, 1239.726 1053 C 1255.114 1011.752, 1256.064 1010.027, 1277.474 984.500 C 1299.286 958.494, 1309.316 940.218, 1315.942 914.406 L 1316.993 910.311 1325.747 912.658 C 1337.883 915.913, 1362.057 920.587, 1377.531 922.672 C 1397.736 925.393, 1440.748 925.123, 1459.856 922.154 C 1492.684 917.054, 1524.780 906.179, 1552.311 890.827 C 1574.424 878.497, 1603.230 857.324, 1612.118 846.869 C 1628.802 827.242, 1637.434 805.258, 1638.865 778.748 L 1639.500 766.995 1663.500 766.595 C 1695.377 766.063, 1715.913 763.112, 1737.133 756.014 C 1776.658 742.791, 1815.125 712.375, 1830.347 682.307 C 1836.194 670.758, 1838.122 661.142, 1838.932 639.500 C 1839.527 623.601, 1840.034 618.819, 1841.402 616.181 C 1843.053 612.997, 1847.308 609.574, 1862.460 599.245 C 1872.227 592.586, 1875.284 588.197, 1877.495 577.659 C 1879.833 566.522, 1879.136 550.795, 1875.452 531.500 C 1872.169 514.309, 1872.423 511.139, 1878.350 495.293 C 1884.841 477.941, 1885.600 473.461, 1884.209 460.717 C 1880.490 426.663, 1868.583 396.771, 1848.262 370.478 C 1838.791 358.224, 1828.280 347.821, 1813.735 336.310 C 1787.961 315.912, 1780.561 307.995, 1771.500 291.126 C 1764.964 278.957, 1758.106 270.764, 1746.209 260.911 C 1716.214 236.070, 1686.143 221.380, 1653.248 215.500 C 1648.437 214.640, 1643.517 213.725, 1642.317 213.466 C 1640.883 213.157, 1638.527 210.295, 1635.458 205.135 C 1628.247 193.012, 1621.460 184.370, 1611.008 174 C 1586.074 149.261, 1554.972 134.777, 1518.500 130.917 C 1500.395 129.001, 1484.217 130.510, 1458 136.561 C 1439.851 140.750, 1432.095 139.546, 1416.760 130.159 C 1397.989 118.670, 1376.592 113.871, 1354 116.085 M 1637.328 383.981 C 1634.022 385.346, 1630.670 392.010, 1624.993 408.500 C 1612.906 443.609, 1605.079 454.115, 1588.784 457.102 C 1574.908 459.646, 1567.473 455.710, 1548.425 435.738 C 1538.293 425.114, 1531.024 415.751, 1522.647 402.534 C 1516.512 392.854, 1508.976 390.448, 1502.526 396.111 C 1497.695 400.353, 1497.316 402.716, 1500.468 408.937 C 1514.982 437.578, 1542.270 467.367, 1562.462 476.611 C 1583.406 486.200, 1600.984 482.972, 1617.532 466.500 C 1641.219 442.921, 1659.026 393.529, 1646.711 385.565 C 1643.607 383.558, 1639.877 382.928, 1637.328 383.981 M 1393.992 390.750 C 1391.614 392.902, 1390.432 395.461, 1388.557 402.521 C 1382.688 424.620, 1372.119 445.105, 1361.571 454.828 C 1352.255 463.415, 1345.023 464.204, 1332.498 457.999 C 1316.701 450.173, 1305.261 439.155, 1287.731 414.881 C 1276.048 398.704, 1271.042 395.090, 1265.140 398.576 C 1258.891 402.268, 1258.515 408.568, 1263.898 419.368 C 1268.758 429.118, 1276.275 438.368, 1292.951 455.117 C 1304.187 466.402, 1310.442 471.862, 1315.500 474.800 C 1332.022 484.396, 1348.088 486.054, 1364.619 479.870 C 1383.815 472.687, 1408.226 431.617, 1409.728 403.973 C 1410.231 394.721, 1410.168 394.353, 1407.534 391.223 C 1403.900 386.904, 1398.453 386.714, 1393.992 390.750 M 1458.558 409.915 C 1456.143 412.456, 1455.618 413.861, 1455.630 417.755 C 1455.657 426.375, 1473.726 476.574, 1490.453 514.500 C 1496.427 528.046, 1520.492 577.097, 1530.928 597 C 1540.440 615.140, 1539.423 618.532, 1522.886 623.821 C 1506.281 629.133, 1487.193 631.997, 1468.386 631.999 C 1450.673 632.001, 1444 635.401, 1444 644.427 C 1444 653.302, 1452.866 656.684, 1473.500 655.679 C 1492.742 654.742, 1519.772 649.284, 1544.139 641.415 C 1567.159 633.980, 1570 631.978, 1570 623.187 C 1570 617.593, 1569.601 616.700, 1559.404 599.503 C 1529.248 548.645, 1504.003 493.382, 1484.431 435.387 C 1479.520 420.832, 1475.874 411.622, 1474.419 410.088 C 1472.713 408.290, 1470.776 407.566, 1466.815 407.247 C 1461.913 406.851, 1461.271 407.059, 1458.558 409.915 M 1326.093 1883.575 C 1324.172 1885.192, 1322.438 1888.076, 1321.436 1891.325 C 1318 1902.457, 1318.629 1936.258, 1322.639 1956 C 1329.314 1988.862, 1358.935 2004.466, 1392.986 1993.058 C 1412.797 1986.421, 1444.115 1968.126, 1453.793 1957.536 C 1461.198 1949.434, 1461.937 1941.751, 1455.591 1938.860 C 1451.311 1936.909, 1446.791 1938.777, 1430.967 1949.037 C 1403.835 1966.628, 1383.105 1975.372, 1368.340 1975.455 C 1360.847 1975.496, 1359.832 1975.255, 1355.930 1972.500 C 1344.119 1964.162, 1338.804 1940.314, 1341.061 1905.785 C 1342.263 1887.396, 1341.717 1885.304, 1335.018 1882.624 C 1329.783 1880.529, 1329.703 1880.538, 1326.093 1883.575 M 1481.380 1966.983 C 1480.214 1967.454, 1476.405 1971.363, 1472.916 1975.670 C 1431.806 2026.415, 1384.227 2073.491, 1330.774 2116.309 C 1318.312 2126.292, 1315.871 2128.697, 1314.893 2131.962 C 1313.242 2137.475, 1314.191 2139.834, 1320.717 2146.423 C 1336.536 2162.397, 1367.877 2184.277, 1390.500 2195.140 C 1413.206 2206.043, 1426 2205.071, 1426 2192.442 C 1426 2186.909, 1422.616 2182.751, 1416.222 2180.429 C 1388.953 2170.525, 1363.349 2155.300, 1348.797 2140.336 L 1344.094 2135.500 1353.305 2127.883 C 1397.452 2091.377, 1445.234 2044.313, 1478.571 2004.500 C 1496.384 1983.227, 1497 1982.325, 1497 1977.545 C 1497 1972.177, 1494.222 1968.433, 1489.205 1967.040 C 1484.888 1965.841, 1484.219 1965.836, 1481.380 1966.983 M 1550.200 1973.050 C 1547.076 1974.303, 1544.251 1981.098, 1542.890 1990.629 C 1540.637 2006.407, 1543.622 2042.494, 1548.203 2054.877 C 1552.524 2066.554, 1560.712 2075.777, 1571.312 2080.909 C 1581.863 2086.017, 1598.457 2087.148, 1611.500 2083.649 C 1625.450 2079.906, 1649.654 2068.474, 1664.180 2058.767 C 1678.591 2049.136, 1684.993 2039.946, 1681.861 2033.383 C 1680.705 2030.961, 1679.796 2030.450, 1676.172 2030.189 C 1671.080 2029.822, 1664.817 2032.776, 1647 2043.948 C 1632.680 2052.928, 1615.433 2061.412, 1607.356 2063.450 C 1590.887 2067.605, 1576.889 2063.493, 1570.523 2052.630 C 1564.380 2042.147, 1561.753 2018.945, 1563.843 1993.609 C 1565.096 1978.413, 1564.450 1976.198, 1558.018 1973.624 C 1553.434 1971.790, 1553.354 1971.784, 1550.200 1973.050" stroke="none" fill="#25766a" fill-rule="evenodd"/></svg>