<svg xmlns="http://www.w3.org/2000/svg" width="1429" height="1410" viewBox="0 0 1429 1410" version="1.1"><path d="M 608.500 70.392 C 593.845 75.091, 582.469 86.144, 578.412 99.625 C 577.604 102.312, 570.983 175.511, 562.518 275.365 C 554.538 369.489, 547.751 448.140, 547.435 450.144 C 547.119 452.149, 545.567 456.523, 543.987 459.864 C 537.978 472.570, 525.312 480.995, 511.077 481.756 C 503.943 482.137, 493.584 479.850, 334 442.674 C 240.775 420.956, 162.700 402.984, 160.500 402.735 C 153.996 401.999, 144.158 403.822, 137.510 406.995 C 129.936 410.610, 121.257 419.082, 117.761 426.272 C 116.363 429.147, 102.720 469.525, 87.442 516 L 59.664 600.500 59.582 610.575 C 59.501 620.489, 59.568 620.789, 63.755 629.237 C 67.994 637.792, 74.608 645.195, 80.937 648.467 C 90.950 653.645, 317.780 747.582, 323 748.713 C 330.590 750.358, 338.515 749.382, 345.662 745.922 C 348.086 744.748, 356.466 737.914, 364.285 730.735 C 412.731 686.250, 465.855 645.039, 528.500 603.347 C 612.832 547.220, 688.164 510.043, 820 459.488 C 851.249 447.505, 851.632 447.315, 857.353 440.953 C 862.370 435.372, 865 428.644, 865 421.388 C 865 414.815, 839.233 111.239, 838.134 104.859 C 835.813 91.387, 826.059 78.764, 813.302 72.722 L 806.500 69.500 709.500 69.305 C 632.892 69.150, 611.659 69.379, 608.500 70.392 M 1247.500 403.169 C 1221.076 407.254, 1189.585 412.641, 1172.229 416.045 C 816.430 485.829, 502.799 685.308, 293.415 975 C 263.329 1016.625, 222.484 1080.335, 214.932 1097.418 C 212.181 1103.640, 211.239 1116.596, 212.990 1124.114 C 214.869 1132.182, 220.399 1141.988, 226.272 1147.666 C 232.395 1153.587, 431.365 1291.370, 437.733 1294.100 C 454.256 1301.182, 474.045 1297.215, 486.821 1284.259 C 490.143 1280.890, 495.152 1273.934, 498.888 1267.500 C 522.538 1226.777, 561.297 1168.905, 592.316 1128 C 653.490 1047.329, 724.845 971.670, 798.519 909.357 C 946.806 783.939, 1117.066 696.838, 1303.662 650.940 C 1317.217 647.606, 1330.547 643.743, 1333.285 642.356 C 1347.139 635.335, 1356.178 618.952, 1354.658 603.615 C 1353.882 595.781, 1300.512 432.617, 1295.888 423.942 C 1290.688 414.185, 1280.704 406.459, 1269.540 403.552 C 1263.016 401.853, 1256.719 401.744, 1247.500 403.169 M 985.500 855.898 C 980.663 857.136, 977.174 859.286, 965 868.533 C 936.792 889.960, 913.543 910.420, 884.953 938.978 C 849.623 974.270, 823.727 1005.280, 800.998 1039.515 C 788.961 1057.645, 787.677 1060.568, 787.603 1070 C 787.495 1083.726, 784.353 1079.647, 876.977 1186 C 922.721 1238.525, 961.803 1283.215, 963.824 1285.311 C 968.638 1290.302, 979.868 1295.781, 987.928 1297.072 C 995.856 1298.341, 1004.946 1297.091, 1012.273 1293.723 C 1018.804 1290.722, 1159.618 1189.806, 1166.664 1183.077 C 1169.837 1180.047, 1173.114 1175.516, 1175.164 1171.323 C 1178.381 1164.744, 1178.500 1164.072, 1178.500 1152.500 C 1178.500 1142.435, 1178.163 1139.774, 1176.412 1136 C 1172.523 1127.618, 1012.784 867.528, 1009.129 863.627 C 1003.262 857.365, 992.950 853.992, 985.500 855.898" stroke="none" fill="#04a484" fill-rule="evenodd"/></svg>